<?xml version="1.0" encoding="utf-8"?>
<!-- Generator: Adobe Illustrator 16.0.0, SVG Export Plug-In . SVG Version: 6.00 Build 0)  -->
<!DOCTYPE svg PUBLIC "-//W3C//DTD SVG 1.1//EN" "http://www.w3.org/Graphics/SVG/1.1/DTD/svg11.dtd">
<svg version="1.1" id="Layer_1" xmlns="http://www.w3.org/2000/svg" xmlns:xlink="http://www.w3.org/1999/xlink" x="0px" y="0px"
	 width="20px" height="20px" viewBox="2 2 20 20" enable-background="new 2 2 20 20" xml:space="preserve">
<path fill="none" d="M0,0h24v24H0V0z"/>
<g>
	<path fill="#0A3F69" d="M9,17l3-2.939C11.61,14.02,11.32,14,11,14c-2.67,0-8,1.34-8,4v2h9L9,17z M11,12c2.21,0,4-1.79,4-4
		s-1.79-4-4-4S7,5.79,7,8S8.79,12,11,12"/>
	<path fill="#0A3F69" d="M15.471,20.5L12,17l1.4-1.41l2.07,2.08L20.6,12.5l1.4,1.41L15.471,20.5z"/>
</g>
</svg>
