<?xml version="1.0" encoding="utf-8"?>
<!-- Generator: Adobe Illustrator 16.0.0, SVG Export Plug-In . SVG Version: 6.00 Build 0)  -->
<!DOCTYPE svg PUBLIC "-//W3C//DTD SVG 1.1//EN" "http://www.w3.org/Graphics/SVG/1.1/DTD/svg11.dtd">
<svg version="1.1" id="Layer_1" xmlns="http://www.w3.org/2000/svg" xmlns:xlink="http://www.w3.org/1999/xlink" x="0px" y="0px"
	 width="1792px" height="1792px" viewBox="0 0 1792 1792" enable-background="new 0 0 1792 1792" xml:space="preserve">
<path fill="#FFFFFF" d="M1579,128c23.333,0,43.333,8.333,60,25c16.666,16.667,25,36.667,25,60v1366c0,23.333-8.334,43.333-25,60
	c-16.667,16.667-36.667,25-60,25h-391v-595h199l30-232h-229V689c0-37.333,7.833-65.333,23.5-84c15.666-18.667,46.166-28,91.5-28
	l122-1V369c-42-6-101.334-9-178-9c-90.667,0-163.167,26.667-217.5,80C975.166,493.333,948,568.667,948,666v171H748v232h200v595H213
	c-23.334,0-43.334-8.333-60-25c-16.667-16.667-25-36.667-25-60V213c0-23.333,8.333-43.333,25-60c16.666-16.667,36.666-25,60-25H1579
	z"/>
</svg>
