<?xml version="1.0" encoding="utf-8"?>
<!-- Generator: Adobe Illustrator 16.0.0, SVG Export Plug-In . SVG Version: 6.00 Build 0)  -->
<!DOCTYPE svg PUBLIC "-//W3C//DTD SVG 1.1//EN" "http://www.w3.org/Graphics/SVG/1.1/DTD/svg11.dtd">
<svg version="1.1" id="Layer_1" xmlns="http://www.w3.org/2000/svg" xmlns:xlink="http://www.w3.org/1999/xlink" x="0px" y="0px"
	 width="512px" height="512px" viewBox="0 0 2304 1792" enable-background="new 0 0 2304 1792" xml:space="preserve">
<path fill="#FFFFFF" d="M1437,913c0,138.667-29,262.167-87,370.5s-140.667,193-248,254c-107.334,61-230.334,91.5-369,91.5
	c-99.334,0-194.334-19.333-285-58c-90.667-38.667-168.667-90.667-234-156c-65.334-65.333-117.334-143.333-156-234
	C19.333,1090.333,0,995.333,0,896s19.333-194.333,58-285c38.666-90.667,90.666-168.667,156-234
	c65.333-65.333,143.333-117.333,234-156c90.666-38.667,185.666-58,285-58c190.666,0,354.333,64,491,192l-199,191
	c-78-75.333-175.334-113-292-113c-82,0-157.834,20.667-227.5,62c-69.667,41.333-124.834,97.5-165.5,168.5
	c-40.667,71-61,148.5-61,232.5s20.333,161.5,61,232.5c40.666,71,95.833,127.167,165.5,168.5c69.666,41.333,145.5,62,227.5,62
	c55.333,0,106.166-7.667,152.5-23c46.333-15.333,84.5-34.5,114.5-57.5s56.166-49.167,78.5-78.5c22.333-29.333,38.666-57,49-83
	c10.333-26,17.5-50.667,21.5-74H733V791h692C1433,833,1437,873.667,1437,913z M2304,791v210h-209v209h-210v-209h-209V791h209V582
	h210v209H2304z"/>
</svg>
