<?xml version="1.0" encoding="utf-8"?>
<!-- Generator: Adobe Illustrator 16.0.0, SVG Export Plug-In . SVG Version: 6.00 Build 0)  -->
<!DOCTYPE svg PUBLIC "-//W3C//DTD SVG 1.1//EN" "http://www.w3.org/Graphics/SVG/1.1/DTD/svg11.dtd">
<svg version="1.1" id="Layer_1" xmlns="http://www.w3.org/2000/svg" xmlns:xlink="http://www.w3.org/1999/xlink" x="0px" y="0px"
	 width="15px" height="15px" viewBox="2 2 15 15" enable-background="new 2 2 15 15" xml:space="preserve">
<g id="Bounding_Boxes">
	<g id="ui_x5F_spec_x5F_header_copy_3" display="none">
	</g>
	<path fill="none" d="M0,0h24v24H0V0z"/>
</g>
<g id="Rounded" display="none">
	<g id="ui_x5F_spec_x5F_header_copy_5" display="inline">
	</g>
	<g display="inline">
		<path d="M12,2C6.48,2,2,6.48,2,12c0,5.52,4.48,10,10,10c5.52,0,10-4.48,10-10C22,6.48,17.52,2,12,2z M12,17L12,17
			c-0.55,0-1-0.45-1-1v-4c0-0.55,0.45-1,1-1l0,0c0.55,0,1,0.45,1,1v4C13,16.55,12.55,17,12,17z M13,9h-2V7h2V9z"/>
	</g>
</g>
<g id="Sharp" display="none">
	<g id="ui_x5F_spec_x5F_header_copy_4" display="inline">
	</g>
	<g display="inline">
		<path d="M12,2C6.48,2,2,6.48,2,12c0,5.52,4.48,10,10,10c5.52,0,10-4.48,10-10C22,6.48,17.52,2,12,2z M13,17h-2v-6h2V17z M13,9h-2
			V7h2V9z"/>
	</g>
</g>
<g id="Outline">
	<g id="ui_x5F_spec_x5F_header" display="none">
	</g>
	<g>
		<rect x="8.75" y="5.75" fill="#0A3F69" width="1.5" height="1.5"/>
		<rect x="8.75" y="8.75" fill="#0A3F69" width="1.5" height="4.5"/>
		<path fill="#0A3F69" d="M9.5,2C5.36,2,2,5.36,2,9.5C2,13.64,5.36,17,9.5,17c4.14,0,7.5-3.36,7.5-7.5C17,5.36,13.64,2,9.5,2z
			 M9.5,15.5c-3.308,0-6-2.692-6-6s2.692-6,6-6s6,2.692,6,6S12.808,15.5,9.5,15.5z"/>
	</g>
</g>
<g id="Duotone" display="none">
	<g id="ui_x5F_spec_x5F_header_copy_2" display="inline">
	</g>
	<g display="inline">
		<path opacity="0.3" enable-background="new    " d="M12,4c-4.41,0-8,3.59-8,8s3.59,8,8,8s8-3.59,8-8S16.41,4,12,4z M13,17h-2v-6h2
			V17z M13,9h-2V7h2V9z"/>
		<rect x="11" y="7" width="2" height="2"/>
		<rect x="11" y="11" width="2" height="6"/>
		<path d="M12,2C6.48,2,2,6.48,2,12c0,5.52,4.48,10,10,10c5.52,0,10-4.48,10-10C22,6.48,17.52,2,12,2z M12,20c-4.41,0-8-3.59-8-8
			s3.59-8,8-8s8,3.59,8,8S16.41,20,12,20z"/>
	</g>
</g>
<g id="Material" display="none">
	<g id="ui_x5F_spec_x5F_header_copy" display="inline">
	</g>
	<g display="inline">
		<path d="M12,2C6.48,2,2,6.48,2,12c0,5.52,4.48,10,10,10c5.52,0,10-4.48,10-10C22,6.48,17.52,2,12,2z M13,17h-2v-6h2V17z M13,9h-2
			V7h2V9z"/>
	</g>
</g>
</svg>
