<?xml version="1.0" encoding="utf-8"?>
<!-- Generator: Adobe Illustrator 16.0.0, SVG Export Plug-In . SVG Version: 6.00 Build 0)  -->
<!DOCTYPE svg PUBLIC "-//W3C//DTD SVG 1.1//EN" "http://www.w3.org/Graphics/SVG/1.1/DTD/svg11.dtd">
<svg version="1.1" id="Layer_1" xmlns="http://www.w3.org/2000/svg" xmlns:xlink="http://www.w3.org/1999/xlink" x="0px" y="0px"
	 width="1792px" height="1792px" viewBox="0 0 1792 1792" enable-background="new 0 0 1792 1792" xml:space="preserve">
<path fill="#FFFFFF" d="M1152,896c0-70.667-25-131-75-181s-110.334-75-181-75c-70.667,0-131,25-181,75s-75,110.333-75,181
	s25,131,75,181s110.333,75,181,75c70.666,0,131-25,181-75S1152,966.667,1152,896z M1290,896c0,109.333-38.334,202.333-115,279
	c-76.667,76.667-169.667,115-279,115c-109.334,0-202.334-38.333-279-115c-76.667-76.667-115-169.667-115-279s38.333-202.333,115-279
	c76.666-76.667,169.666-115,279-115c109.333,0,202.333,38.333,279,115C1251.666,693.667,1290,786.667,1290,896z M1398,486
	c0,25.333-9,47-27,65s-39.667,27-65,27c-25.334,0-47-9-65-27s-27-39.667-27-65s9-47,27-65s39.666-27,65-27c25.333,0,47,9,65,27
	S1398,460.667,1398,486z M896,266c-4.667,0-30.167-0.167-76.5-0.5c-46.334-0.333-81.5-0.333-105.5,0s-56.167,1.333-96.5,3
	c-40.334,1.667-74.667,5-103,10c-28.334,5-52.167,11.167-71.5,18.5c-33.334,13.333-62.667,32.667-88,58
	c-25.334,25.333-44.667,54.667-58,88c-7.334,19.333-13.5,43.167-18.5,71.5s-8.334,62.667-10,103c-1.667,40.333-2.667,72.5-3,96.5
	c-0.334,24-0.334,59.167,0,105.5c0.333,46.333,0.5,71.833,0.5,76.5s-0.167,30.167-0.5,76.5c-0.334,46.333-0.334,81.5,0,105.5
	c0.333,24,1.333,56.167,3,96.5c1.666,40.333,5,74.667,10,103s11.166,52.167,18.5,71.5c13.333,33.333,32.666,62.667,58,88
	c25.333,25.333,54.666,44.667,88,58c19.333,7.333,43.166,13.5,71.5,18.5c28.333,5,62.666,8.333,103,10
	c40.333,1.667,72.5,2.667,96.5,3s59.166,0.333,105.5,0c46.333-0.333,71.833-0.5,76.5-0.5c4.666,0,30.166,0.167,76.5,0.5
	c46.333,0.333,81.5,0.333,105.5,0s56.166-1.333,96.5-3c40.333-1.667,74.666-5,103-10c28.333-5,52.166-11.167,71.5-18.5
	c33.333-13.333,62.666-32.667,88-58c25.333-25.333,44.666-54.667,58-88c7.333-19.333,13.5-43.167,18.5-71.5s8.333-62.667,10-103
	c1.666-40.333,2.666-72.5,3-96.5c0.333-24,0.333-59.167,0-105.5c-0.334-46.333-0.5-71.833-0.5-76.5s0.166-30.167,0.5-76.5
	c0.333-46.333,0.333-81.5,0-105.5c-0.334-24-1.334-56.167-3-96.5c-1.667-40.333-5-74.667-10-103s-11.167-52.167-18.5-71.5
	c-13.334-33.333-32.667-62.667-58-88c-25.334-25.333-54.667-44.667-88-58c-19.334-7.333-43.167-13.5-71.5-18.5
	c-28.334-5-62.667-8.333-103-10c-40.334-1.667-72.5-2.667-96.5-3s-59.167-0.333-105.5,0C926.166,265.833,900.666,266,896,266z
	 M1664,896c0,152.667-1.667,258.333-5,317c-6.667,138.667-48,246-124,322s-183.334,117.333-322,124c-58.667,3.333-164.334,5-317,5
	c-152.667,0-258.334-1.667-317-5c-138.667-6.667-246-48-322-124s-117.334-183.333-124-322c-3.334-58.667-5-164.333-5-317
	s1.666-258.333,5-317c6.666-138.667,48-246,124-322s183.333-117.333,322-124c58.666-3.333,164.333-5,317-5
	c152.666,0,258.333,1.667,317,5c138.666,6.667,246,48,322,124s117.333,183.333,124,322C1662.333,637.667,1664,743.333,1664,896z"/>
</svg>
