<?xml version="1.0" encoding="utf-8"?>
<!-- Generator: Adobe Illustrator 16.0.0, SVG Export Plug-In . SVG Version: 6.00 Build 0)  -->
<!DOCTYPE svg PUBLIC "-//W3C//DTD SVG 1.1//EN" "http://www.w3.org/Graphics/SVG/1.1/DTD/svg11.dtd">
<svg version="1.1" id="Layer_1" xmlns="http://www.w3.org/2000/svg" xmlns:xlink="http://www.w3.org/1999/xlink" x="0px" y="0px"
	 width="20px" height="20px" viewBox="0 0 20 20" enable-background="new 0 0 20 20" xml:space="preserve">
<path fill="#0A3F69" d="M20,3.313c0,1.83-2.819,3.313-6.297,3.313c-3.478,0-6.297-1.483-6.297-3.313C7.406,1.483,10.225,0,13.703,0
	C17.181,0,20,1.483,20,3.313z M6.297,8.313C2.819,8.313,0,9.796,0,11.625c0,1.83,2.819,3.313,6.297,3.313
	c3.478,0,6.297-1.482,6.297-3.313C12.594,9.796,9.774,8.313,6.297,8.313z M13.703,7.5c-3.479,0-6.297-1.482-6.297-3.313
	c0,0.529,0,1.057,0,1.469c0,1.83,2.819,3.313,6.297,3.313C17.181,8.969,20,7.486,20,5.656c0-0.361,0-0.906,0-1.469
	C20,6.018,17.181,7.5,13.703,7.5z M6.297,15.859C2.818,15.859,0,14.377,0,12.547c0,0.529,0,1.057,0,1.469
	c0,1.83,2.819,3.313,6.297,3.313c3.478,0,6.297-1.482,6.297-3.313c0-0.361,0-0.906,0-1.469C12.594,14.377,9.774,15.859,6.297,15.859
	z M6.297,18.531C2.818,18.531,0,17.049,0,15.219c0,0.529,0,1.057,0,1.469C0,18.518,2.819,20,6.297,20
	c3.478,0,6.297-1.482,6.297-3.313c0-0.361,0-0.906,0-1.469C12.594,17.049,9.774,18.531,6.297,18.531z M13.703,10.156
	c-0.319,0-0.623-0.029-0.93-0.054c0.389,0.431,0.612,0.91,0.612,1.418c0,0.023,0,0.063,0,0.092c0.106,0.003,0.21,0.013,0.317,0.013
	c3.478,0,6.297-1.482,6.297-3.313c0-0.361,0-0.906,0-1.469C20,8.674,17.181,10.156,13.703,10.156z M13.703,12.739
	c-0.107,0-0.212-0.006-0.317-0.009c0,0.437,0,0.939,0,1.469c0.105,0.003,0.21,0.009,0.317,0.009c3.478,0,6.297-1.482,6.297-3.313
	c0-0.361,0-0.906,0-1.469C20,11.257,17.181,12.739,13.703,12.739z M13.703,15.13c-0.107,0-0.212-0.006-0.317-0.009
	c0,0.518,0,1.02,0,1.469c0.105,0.003,0.21,0.009,0.317,0.009c3.478,0,6.297-1.482,6.297-3.313c0-0.361,0-0.905,0-1.469
	C20,13.647,17.181,15.13,13.703,15.13z"/>
</svg>
