<?xml version="1.0" encoding="utf-8"?>
<!-- Generator: Adobe Illustrator 16.0.0, SVG Export Plug-In . SVG Version: 6.00 Build 0)  -->
<!DOCTYPE svg PUBLIC "-//W3C//DTD SVG 1.1//EN" "http://www.w3.org/Graphics/SVG/1.1/DTD/svg11.dtd">
<svg version="1.1" id="Layer_1" xmlns="http://www.w3.org/2000/svg" xmlns:xlink="http://www.w3.org/1999/xlink" x="0px" y="0px"
	 width="20px" height="20px" viewBox="0 0 20 20" enable-background="new 0 0 20 20" xml:space="preserve">
<path fill="#0A3F69" d="M10,0C4.477,0,0,4.477,0,10c0,5.522,4.477,10,10,10c5.522,0,10-4.478,10-10C20,4.477,15.522,0,10,0z M10,18
	c-4.418,0-8-3.582-8-8c0-4.418,3.582-8,8-8c4.418,0,8,3.582,8,8C18,14.418,14.418,18,10,18z M7.836,13.329L6.5,9.215L10,6.671
	l3.5,2.544l-1.336,4.114H7.836z M18.047,10.451l-0.088-3.222l-1.872-2.542v3.604L18.047,10.451z M4,8.292v-3.67L2.063,7.143
	l-0.142,3.44L4,8.292z M9.903,3.724l3.224-1.176L10,1.625L7.049,2.524L9.903,3.724z M5.021,16.684l2.843,1.142L6.49,15.021
	l-3.396-0.748L5.021,16.684z M16.848,14.298l-3.283,0.724l-1.385,2.826l3.092-1.351L16.848,14.298z"/>
</svg>
