<?xml version="1.0" encoding="utf-8"?>
<!-- Generator: Adobe Illustrator 16.0.0, SVG Export Plug-In . SVG Version: 6.00 Build 0)  -->
<!DOCTYPE svg PUBLIC "-//W3C//DTD SVG 1.1//EN" "http://www.w3.org/Graphics/SVG/1.1/DTD/svg11.dtd">
<svg version="1.1" id="Layer_1" xmlns="http://www.w3.org/2000/svg" xmlns:xlink="http://www.w3.org/1999/xlink" x="0px" y="0px"
	 width="20px" height="20px" viewBox="2 2 20 20" enable-background="new 2 2 20 20" xml:space="preserve">
<path fill="none" d="M0,0h24v24H0V0z"/>
<path fill="#0A3F69" d="M5,8h2v8H5V8z M12,8H9C8.45,8,8,8.45,8,9v6c0,0.55,0.45,1,1,1h3c0.55,0,1-0.45,1-1V9C13,8.45,12.55,8,12,8z
	 M11,14h-1v-4h1V14z M18,8h-3c-0.55,0-1,0.45-1,1v6c0,0.55,0.45,1,1,1h3c0.55,0,1-0.45,1-1V9C19,8.45,18.55,8,18,8z M17,14h-1v-4h1
	V14z"/>
<path fill="none" d="M4,6h16v12H4V6z"/>
<path fill="#0A3F69" d="M2,4v16h20V4H2z M4,18V6h16v12H4z"/>
</svg>
