<?xml version="1.0" encoding="utf-8"?>
<!-- Generator: Adobe Illustrator 16.0.0, SVG Export Plug-In . SVG Version: 6.00 Build 0)  -->
<!DOCTYPE svg PUBLIC "-//W3C//DTD SVG 1.1//EN" "http://www.w3.org/Graphics/SVG/1.1/DTD/svg11.dtd">
<svg version="1.1" id="Layer_1" xmlns="http://www.w3.org/2000/svg" xmlns:xlink="http://www.w3.org/1999/xlink" x="0px" y="0px"
	 width="1792px" height="1792px" viewBox="0 0 1792 1792" enable-background="new 0 0 1792 1792" xml:space="preserve">
<path fill="#FFFFFF" d="M711,1128l484-250L711,625V1128z M896,266c112,0,220.166,1.5,324.5,4.5c104.333,3,180.833,6.167,229.5,9.5
	l73,4c0.666,0,6.333,0.5,17,1.5c10.666,1,18.333,2,23,3c4.666,1,12.5,2.5,23.5,4.5s20.5,4.667,28.5,8s17.333,7.667,28,13
	c10.666,5.333,21,11.833,31,19.5s19.666,16.5,29,26.5c4,4,9.166,10.167,15.5,18.5c6.333,8.333,16,27.833,29,58.5
	s21.833,64.333,26.5,101c5.333,42.667,9.5,88.167,12.5,136.5s4.833,86.167,5.5,113.5v176c0.666,96.667-5.334,193.333-18,290
	c-4.667,36.667-13,69.833-25,99.5s-22.667,50.167-32,61.5l-14,17c-9.334,10-19,18.833-29,26.5s-20.334,14-31,19
	c-10.667,5-20,9.167-28,12.5s-17.5,6-28.5,8s-19,3.5-24,4.5s-12.667,2-23,3c-10.334,1-15.834,1.5-16.5,1.5
	c-167.334,12.667-376.334,19-627,19c-138-1.333-257.834-3.5-359.5-6.5c-101.667-3-168.5-5.5-200.5-7.5l-49-4l-36-4
	c-24-3.333-42.167-6.667-54.5-10c-12.334-3.333-29.334-10.333-51-21c-21.667-10.667-40.5-24.333-56.5-41
	c-4-4-9.167-10.167-15.5-18.5c-6.334-8.333-16-27.833-29-58.5s-21.834-64.333-26.5-101c-5.334-42.667-9.5-88.167-12.5-136.5
	S0.666,1031.333,0,1004V828c-0.667-96.667,5.333-193.333,18-290c4.666-36.667,13-69.833,25-99.5s22.666-50.167,32-61.5l14-17
	c9.333-10,19-18.833,29-26.5s20.333-14.167,31-19.5c10.666-5.333,20-9.667,28-13s17.5-6,28.5-8s18.833-3.5,23.5-4.5
	c4.666-1,12.333-2,23-3c10.666-1,16.333-1.5,17-1.5C436.333,272,645.333,266,896,266z"/>
</svg>
