<?xml version="1.0" standalone="no"?>
<!DOCTYPE svg PUBLIC "-//W3C//DTD SVG 20010904//EN"
 "http://www.w3.org/TR/2001/REC-SVG-20010904/DTD/svg10.dtd">
<svg version="1.0" xmlns="http://www.w3.org/2000/svg"
 width="400.000000pt" height="400.000000pt" viewBox="0 0 400.000000 400.000000"
 preserveAspectRatio="xMidYMid meet">
<metadata>
Created by potrace 1.11, written by Peter Selinger 2001-2013
</metadata>
<g transform="translate(0.000000,400.000000) scale(0.100000,-0.100000)"
fill="#000000" stroke="none">
<path d="M1720 3834 c-96 -14 -110 -17 -165 -28 -57 -11 -70 -15 -156 -40
-634 -186 -1098 -672 -1224 -1281 -23 -114 -30 -192 -30 -345 0 -207 10 -289
56 -472 48 -196 137 -395 243 -551 23 -34 45 -67 48 -72 4 -7 -36 -10 -119
-10 -99 1 -130 -3 -144 -15 -15 -13 -59 -177 -104 -390 -2 -8 -8 -35 -14 -60
-7 -25 -14 -56 -17 -70 -3 -14 -18 -81 -35 -149 -37 -158 -37 -178 -1 -188 43
-10 316 -7 338 5 15 8 27 44 53 160 l34 149 69 1 c118 1 220 29 267 73 21 20
23 20 18 3 -9 -29 -87 -350 -87 -357 0 -3 7 -13 16 -21 12 -13 40 -16 139 -16
72 0 126 4 130 10 4 7 12 7 25 0 10 -5 68 -10 129 -10 89 0 113 3 126 17 14
14 18 14 26 2 13 -22 695 -24 703 -3 5 13 9 13 28 0 31 -22 170 -22 191 -1 12
11 16 12 20 2 2 -8 36 -13 106 -15 121 -5 144 0 159 30 8 18 11 19 11 6 1 -30
36 -38 153 -38 119 0 142 7 151 45 4 18 5 18 6 -2 0 -12 10 -27 20 -33 26 -13
418 -14 426 0 4 7 12 7 25 0 25 -13 257 -13 265 0 4 7 12 7 25 0 28 -15 222
-13 243 3 23 17 67 204 56 235 -6 16 -5 28 5 38 46 45 58 164 21 204 -28 31
-99 53 -175 54 -38 0 -70 4 -70 8 0 4 14 6 30 6 17 -1 35 3 39 8 9 10 51 171
51 196 0 43 -95 63 -153 33 -26 -13 -31 -13 -50 0 -24 17 -74 20 -109 6 -23
-8 -24 -7 -20 20 3 22 0 29 -12 29 -12 0 -3 19 33 68 167 229 277 498 318 772
10 71 10 397 0 475 -59 438 -319 871 -686 1144 -247 183 -549 311 -836 355
-22 4 -56 9 -75 13 -76 13 -425 11 -520 -3z m1893 -2991 c-7 -2 -19 -2 -25 0
-7 3 -2 5 12 5 14 0 19 -2 13 -5z m-3048 -70 c-4 -27 -11 -55 -17 -63 -9 -14
-5 33 7 80 2 8 4 18 4 23 1 4 4 7 7 7 4 0 3 -21 -1 -47z m2890 -43 c3 -5 18
-10 32 -10 32 0 28 -7 -7 -12 -14 -1 -31 -9 -39 -16 -12 -11 -15 -11 -22 0 -6
9 -41 14 -125 15 -64 1 -119 5 -122 8 -4 3 52 5 123 4 87 -1 130 2 133 10 5
14 19 14 27 1z m159 -20 c-53 -8 -73 0 -44 15 17 9 30 9 53 1 l29 -11 -38 -5z
m79 3 c-7 -2 -19 -2 -25 0 -7 3 -2 5 12 5 14 0 19 -2 13 -5z m-746 -195 c-3
-7 -5 -2 -5 12 0 14 2 19 5 13 2 -7 2 -19 0 -25z m441 -10 c-11 -30 -12 -30
-19 -10 -5 12 -16 23 -26 23 -14 1 17 12 49 18 4 0 2 -13 -4 -31z m-2008 -108
c0 -11 -2 -20 -4 -20 -2 0 -6 9 -9 20 -3 11 -1 20 4 20 5 0 9 -9 9 -20z m1223
-15 c-3 -9 -8 -14 -10 -11 -3 3 -2 9 2 15 9 16 15 13 8 -4z m304 -17 c-3 -8
-6 -5 -6 6 -1 11 2 17 5 13 3 -3 4 -12 1 -19z m446 -20 c-4 -22 -9 -25 -27
-19 -11 5 -43 7 -69 6 -26 -1 -50 2 -53 6 -6 10 -6 10 69 13 31 1 63 8 69 14
15 15 17 12 11 -20z m-456 -30 c-3 -8 -6 -5 -6 6 -1 11 2 17 5 13 3 -3 4 -12
1 -19z m-330 -60 c-3 -8 -6 -5 -6 6 -1 11 2 17 5 13 3 -3 4 -12 1 -19z"/>
</g>
</svg>
