<?xml version="1.0" encoding="UTF-8" standalone="no"?>
<svg
   xmlns:dc="http://purl.org/dc/elements/1.1/"
   xmlns:cc="http://creativecommons.org/ns#"
   xmlns:rdf="http://www.w3.org/1999/02/22-rdf-syntax-ns#"
   xmlns:svg="http://www.w3.org/2000/svg"
   xmlns="http://www.w3.org/2000/svg"
   xmlns:sodipodi="http://sodipodi.sourceforge.net/DTD/sodipodi-0.dtd"
   xmlns:inkscape="http://www.inkscape.org/namespaces/inkscape"
   version="1.1"
   width="475"
   height="96"
   id="svg10"
   viewBox="32 334 475 96">
  <metadata
     id="metadata16">
    <rdf:RDF>
      <cc:Work
         rdf:about="">
        <dc:format>image/svg+xml</dc:format>
        <dc:type
           rdf:resource="http://purl.org/dc/dcmitype/StillImage" />
      </cc:Work>
    </rdf:RDF>
  </metadata>


   <!-- sportska kladionica -->
  <path
     d="m 151.3349,348.3411 h -6.9013 l 0.3411,-1.2691 c 0.2925,-1.0882 0.4115,-1.7773 0.3517,-2.0673 -0.0538,-0.29 -0.3506,-0.4343 -0.89,-0.4343 -0.4411,0 -0.8056,0.1327 -1.0939,0.3983 -0.2889,0.2653 -0.508,0.665 -0.6509,1.1965 -0.1933,0.7194 -0.2769,1.2512 -0.261,1.5831 0.0212,0.3385 0.2505,0.7081 0.6896,1.1061 0.4374,0.4054 1.3984,0.9916 2.8911,1.7524 1.9899,1.0159 3.2119,1.9766 3.6825,2.8715 0.462,0.9 0.4677,2.1997 0.007,3.9163 -0.5137,1.9097 -1.1713,3.3542 -1.9718,4.3268 -0.8014,0.9728 -1.9106,1.7235 -3.3151,2.2481 -1.4043,0.5259 -3.0005,0.7855 -4.79,0.7855 -1.9735,0 -3.5946,-0.2832 -4.8512,-0.8455 -1.2555,-0.5678 -2.0166,-1.3354 -2.283,-2.3026 -0.2665,-0.9678 -0.1347,-2.4355 0.3912,-4.3937 l 0.3038,-1.1307 h 6.9013 l -0.3997,1.4864 c -0.3391,1.2646 -0.4748,2.0863 -0.398,2.4611 0.0692,0.3801 0.3611,0.5675 0.8739,0.5675 0.5525,0 0.9751,-0.1267 1.2603,-0.381 0.2851,-0.2531 0.542,-0.7912 0.7594,-1.6013 0.3022,-1.1239 0.3523,-1.8247 0.146,-2.1095 -0.22,-0.2832 -1.5092,-1.1172 -3.8577,-2.5144 -1.9729,-1.1783 -3.0798,-2.247 -3.3202,-3.2147 -0.2418,-0.9604 -0.1848,-2.1025 0.1712,-3.426 0.5034,-1.8745 1.1452,-3.2581 1.9253,-4.1524 0.7775,-0.8887 1.8771,-1.5778 3.3032,-2.0611 1.4196,-0.483 2.9843,-0.7251 4.6953,-0.7251 1.6906,0 3.0846,0.199 4.1627,0.5925 1.0839,0.3988 1.8583,0.9184 2.3161,1.565 0.4635,0.6522 0.6906,1.2509 0.673,1.8073 -0.0116,0.5556 -0.18,1.4258 -0.4966,2.6045 z m 12.6152,-7.5064 -0.6885,2.0735 c 0.917,-0.8402 1.847,-1.4627 2.793,-1.874 0.9476,-0.4164 1.9173,-0.6222 2.9043,-0.6222 1.2107,0 2.1705,0.2954 2.8911,0.8941 0.7205,0.5989 1.0899,1.2815 1.0973,2.061 0.008,0.7801 -0.2362,2.1036 -0.7365,3.9651 l -2.6603,9.8991 c -0.5746,2.1399 -1.1208,3.6561 -1.6404,4.5629 -0.5184,0.9 -1.2773,1.6192 -2.2776,2.1581 -0.9998,0.5377 -2.1039,0.8027 -3.3078,0.8027 -0.9669,0 -1.8062,-0.2049 -2.5185,-0.6162 -0.7104,-0.4164 -1.2966,-1.027 -1.7544,-1.8428 l -1.4474,5.3844 h -7.7895 l 7.2144,-26.8457 z m 0.381,6.8357 c 0.3895,-1.4505 0.5675,-2.3324 0.5366,-2.6354 -0.0357,-0.3084 -0.3155,-0.4646 -0.8419,-0.4646 -0.5133,0 -0.8906,0.1814 -1.1367,0.5315 -0.2404,0.3563 -0.5431,1.2147 -0.9071,2.5685 l -2.6166,9.7355 c -0.3816,1.4208 -0.5463,2.3026 -0.4845,2.6598 0.0556,0.3569 0.3439,0.5318 0.8575,0.5318 0.4995,0 0.8592,-0.1627 1.0658,-0.489 0.2107,-0.3215 0.4828,-1.112 0.8193,-2.3638 z m 27.5847,1.4196 -1.546,5.7543 c -0.5669,2.1092 -1.103,3.6621 -1.5976,4.6477 -0.4955,0.9841 -1.2353,1.9031 -2.2292,2.7609 -0.9859,0.8527 -2.1296,1.4876 -3.4228,1.8927 -1.3014,0.4104 -2.7232,0.6094 -4.2624,0.6094 -1.7241,0 -3.1323,-0.1684 -4.2356,-0.5196 -1.1032,-0.3498 -1.8892,-0.8756 -2.3587,-1.5769 -0.4765,-0.7004 -0.7211,-1.5534 -0.7358,-2.55 -0.0151,-0.9972 0.2477,-2.4908 0.7838,-4.4853 l 1.6191,-6.0255 c 0.5862,-2.1813 1.3008,-3.8852 2.1438,-5.1123 0.8431,-1.2271 2.0353,-2.2122 3.5705,-2.9554 1.5358,-0.7432 3.3472,-1.118 5.4253,-1.118 1.7503,0 3.1855,0.2421 4.3069,0.7189 1.1282,0.4776 1.9281,1.1004 2.3992,1.868 0.4785,0.7668 0.7263,1.5585 0.7651,2.3689 0.0309,0.8155 -0.1774,2.0543 -0.6256,3.7222 z m -7.3136,-1.7697 c 0.3245,-1.2087 0.4555,-1.9644 0.4022,-2.2785 -0.0607,-0.3152 -0.3212,-0.4714 -0.7812,-0.4714 -0.4609,0 -0.8122,0.1562 -1.0483,0.4714 -0.2423,0.3141 -0.5238,1.0698 -0.849,2.2785 l -2.8488,10.6001 c -0.2985,1.1121 -0.4147,1.8369 -0.3458,2.1697 0.0601,0.3379 0.3175,0.5074 0.7642,0.5074 0.4677,0 0.8121,-0.1576 1.0381,-0.4592 0.2344,-0.3085 0.485,-0.9726 0.7562,-1.9823 z m 19.881,-6.4856 -1.1379,3.0829 c 1.7249,-2.2062 3.6777,-3.3783 5.8567,-3.5056 l -2.2218,8.2675 c -1.4275,0 -2.5211,0.1749 -3.2879,0.5321 -0.76,0.3566 -1.3062,0.8461 -1.6276,1.4797 -0.3272,0.6298 -0.7909,2.0854 -1.4032,4.3639 l -2.4931,9.2772 h -7.7895 l 6.315,-23.4977 z m 16.0976,-3.1298 -0.9938,3.6984 h 2.0982 l -0.9984,3.7162 h -2.099 l -3.3778,12.5719 c -0.4161,1.546 -0.5627,2.4106 -0.4326,2.586 0.1242,0.1758 0.8238,0.2656 2.0937,0.2656 l -1.0188,3.7894 h -3.1379 c -1.7762,0 -3.0215,-0.0669 -3.7474,-0.205 -0.7206,-0.1338 -1.3008,-0.4478 -1.7484,-0.9374 -0.4473,-0.4895 -0.6582,-1.0513 -0.6273,-1.6804 0.0261,-0.6338 0.3512,-2.114 0.9799,-4.4537 l 3.2077,-11.9364 h -1.6707 l 0.9986,-3.7162 h 1.6707 l 0.9944,-3.6984 z m 16.8587,10.6362 h -6.9012 l 0.341,-1.2691 c 0.2923,-1.0882 0.4116,-1.7773 0.3512,-2.0673 -0.0541,-0.29 -0.3501,-0.4343 -0.8898,-0.4343 -0.4408,0 -0.8053,0.1327 -1.0936,0.3983 -0.2888,0.2653 -0.5079,0.665 -0.6511,1.1965 -0.193,0.7194 -0.2767,1.2512 -0.2608,1.5831 0.021,0.3385 0.2506,0.7081 0.6897,1.1061 0.4371,0.4054 1.3983,0.9916 2.891,1.7524 1.9899,1.0159 3.212,1.9766 3.6825,2.8715 0.4621,0.9 0.4674,2.1997 0.007,3.9163 -0.5136,1.9097 -1.1713,3.3542 -1.9718,4.3268 -0.8013,0.9728 -1.9108,1.7235 -3.3151,2.2481 -1.4048,0.5259 -3.0004,0.7855 -4.7899,0.7855 -1.9738,0 -3.5949,-0.2832 -4.8515,-0.8455 -1.2552,-0.5678 -2.0166,-1.3354 -2.283,-2.3026 -0.2665,-0.9678 -0.135,-2.4355 0.3914,-4.3937 l 0.3039,-1.1307 h 6.9012 l -0.3997,1.4864 c -0.3393,1.2646 -0.4748,2.0863 -0.398,2.4611 0.0692,0.3801 0.3609,0.5675 0.874,0.5675 0.5521,0 0.9748,-0.1267 1.2602,-0.381 0.2852,-0.2531 0.542,-0.7912 0.7594,-1.6013 0.3022,-1.1239 0.3524,-1.8247 0.1452,-2.1095 -0.2191,-0.2832 -1.5083,-1.1172 -3.8568,-2.5144 -1.9729,-1.1783 -3.0799,-2.247 -3.3205,-3.2147 -0.2415,-0.9604 -0.1846,-2.1025 0.1715,-3.426 0.5031,-1.8745 1.1452,-3.2581 1.9244,-4.1524 0.7784,-0.8887 1.8779,-1.5778 3.3041,-2.0611 1.4195,-0.483 2.9843,-0.7251 4.695,-0.7251 1.6908,0 3.0843,0.199 4.1629,0.5925 1.084,0.3988 1.8584,0.9184 2.3162,1.565 0.4632,0.6522 0.6905,1.2509 0.6729,1.8073 -0.0116,0.5556 -0.18,1.4258 -0.4966,2.6045 z m 21.4639,-7.5064 -5.6815,9.3676 0.3076,14.1301 h -7.4934 l 0.3223,-10.2314 -2.7493,10.2314 h -7.7896 l 7.7029,-28.6639 h 7.7895 l -3.2349,12.0379 4.2741,-6.8717 z m 6.6135,9.1017 h -7.3091 l 0.4237,-1.5772 c 0.4876,-1.8125 1.0942,-3.2145 1.8131,-4.2001 0.7251,-0.9856 1.8748,-1.8615 3.4531,-2.6175 1.5781,-0.7548 3.4614,-1.1296 5.6591,-1.1296 2.6379,0 4.5031,0.4289 5.6095,1.281 1.1117,0.858 1.6313,1.9097 1.5667,3.1552 -0.065,1.2447 -0.622,3.8075 -1.666,7.6935 l -3.1691,11.7907 h -7.5721 l 0.5621,-2.0911 c -0.6996,0.8402 -1.4868,1.468 -2.3491,1.8861 -0.8637,0.4227 -1.8139,0.6276 -2.8596,0.6276 -1.362,0 -2.5174,-0.3498 -3.4676,-1.0505 -0.9428,-0.7013 -1.101,-2.2425 -0.4643,-4.6119 l 0.5196,-1.9341 c 0.4728,-1.7583 1.0967,-2.9554 1.8728,-3.5898 0.777,-0.6409 2.4704,-1.3836 5.0925,-2.2303 2.8009,-0.9244 4.3352,-1.5409 4.6054,-1.8615 0.2639,-0.32 0.5298,-0.966 0.7925,-1.9451 0.3303,-1.2274 0.4411,-2.0308 0.3422,-2.4001 -0.0967,-0.3742 -0.3747,-0.5613 -0.8422,-0.5613 -0.5264,0 -0.8974,0.1562 -1.1072,0.4714 -0.216,0.3141 -0.4929,1.1234 -0.8453,2.4353 z m 1.6018,3.2213 c -1.4763,0.8404 -2.3884,1.542 -2.7385,2.1087 -0.3498,0.5686 -0.6679,1.3847 -0.9519,2.4426 -0.3263,1.2143 -0.4524,1.9995 -0.3767,2.3567 0.0751,0.3569 0.3767,0.5318 0.8898,0.5318 0.4867,0 0.8399,-0.1389 1.0658,-0.4176 0.2197,-0.2772 0.4952,-1.0085 0.8118,-2.1878 z m 37.5017,-12.323 -5.6817,9.3676 0.3078,14.1301 h -7.4936 l 0.3222,-10.2314 -2.7493,10.2314 h -7.7895 l 7.7031,-28.6639 h 7.7893 l -3.2349,12.0379 4.2741,-6.8717 z m 11.5069,-5.1662 -7.7034,28.6639 h -8.0197 l 7.7037,-28.6639 z m 5.9222,14.2679 h -7.3094 l 0.424,-1.5772 c 0.4873,-1.8125 1.0942,-3.2145 1.8131,-4.2001 0.7248,-0.9856 1.8748,-1.8615 3.4528,-2.6175 1.5783,-0.7548 3.4622,-1.1296 5.6591,-1.1296 2.6385,0 4.5031,0.4289 5.6095,1.281 1.112,0.858 1.6321,1.9097 1.5672,3.1552 -0.0652,1.2447 -0.6225,3.8075 -1.6665,7.6935 l -3.1682,11.7907 h -7.5728 l 0.5619,-2.0911 c -0.6993,0.8402 -1.4868,1.468 -2.3485,1.8861 -0.8635,0.4227 -1.8136,0.6276 -2.8602,0.6276 -1.3612,0 -2.5171,-0.3498 -3.4667,-1.0505 -0.9437,-0.7013 -1.1016,-2.2425 -0.4652,-4.6119 l 0.5201,-1.9341 c 0.4726,-1.7583 1.0968,-2.9554 1.8726,-3.5898 0.777,-0.6409 2.4701,-1.3836 5.0922,-2.2303 2.8014,-0.9244 4.3355,-1.5409 4.606,-1.8615 0.2636,-0.32 0.5295,-0.966 0.7922,-1.9451 0.33,-1.2274 0.4408,-2.0308 0.3422,-2.4001 -0.0964,-0.3742 -0.375,-0.5613 -0.8425,-0.5613 -0.5261,0 -0.8974,0.1562 -1.1069,0.4714 -0.2157,0.3141 -0.4924,1.1234 -0.8447,2.4353 z m 1.6015,3.2213 c -1.4763,0.8404 -2.3876,1.542 -2.7377,2.1087 -0.35,0.5686 -0.6678,1.3847 -0.9524,2.4426 -0.3266,1.2143 -0.4518,1.9995 -0.3767,2.3567 0.0751,0.3569 0.3767,0.5318 0.89,0.5318 0.487,0 0.8399,-0.1389 1.0659,-0.4176 0.2194,-0.2772 0.4949,-1.0085 0.8115,-2.1878 z m 32.8708,-17.4892 -7.7029,28.6639 h -7.7828 l 0.4558,-1.6983 c -0.9396,0.7076 -1.8657,1.2391 -2.7819,1.5894 -0.9187,0.3563 -1.8269,0.5315 -2.7221,0.5315 -1.2104,0 -2.1781,-0.2897 -2.9092,-0.8759 -0.7321,-0.5799 -1.116,-1.2569 -1.1596,-2.0239 -0.0442,-0.7676 0.1672,-2.0194 0.6335,-3.7534 l 2.9557,-10.9992 c 0.4839,-1.8017 0.9533,-3.0827 1.4063,-3.8375 0.4529,-0.756 1.2038,-1.4202 2.26,-1.9948 1.0554,-0.574 2.2037,-0.8583 3.4475,-0.8583 0.9672,0 1.8065,0.1576 2.5228,0.4768 0.7169,0.3206 1.319,0.7985 1.8057,1.4329 l 1.7884,-6.6532 z m -10.7617,11.0829 c 0.2327,-0.8643 0.3084,-1.4386 0.223,-1.7334 -0.0782,-0.2976 -0.3605,-0.4476 -0.8339,-0.4476 -0.4604,0 -0.8121,0.1327 -1.0412,0.3983 -0.2293,0.2653 -0.4739,0.8589 -0.7228,1.7827 l -3.0923,11.5075 c -0.2565,0.9553 -0.3464,1.5828 -0.2699,1.8859 0.0701,0.3016 0.3257,0.4527 0.76,0.4527 0.5,0 0.881,-0.1695 1.1432,-0.5074 0.2537,-0.3328 0.5616,-1.1605 0.9128,-2.4656 z m 21.5775,-11.0829 -1.0035,3.7338 h -8.0203 l 1.004,-3.7338 z m -1.3887,5.1662 -6.3144,23.4977 h -8.0204 l 6.3151,-23.4977 z m 18.1958,8.2553 -1.546,5.7543 c -0.5669,2.1092 -1.1029,3.6621 -1.5976,4.6477 -0.4952,0.9841 -1.2353,1.9031 -2.2291,2.7609 -0.9859,0.8527 -2.1297,1.4876 -3.4226,1.8927 -1.3016,0.4104 -2.7235,0.6094 -4.2627,0.6094 -1.7235,0 -3.132,-0.1684 -4.2355,-0.5196 -1.1033,-0.3498 -1.8893,-0.8756 -2.3587,-1.5769 -0.4765,-0.7004 -0.7206,-1.5534 -0.7359,-2.55 -0.015,-0.9972 0.2477,-2.4908 0.7838,-4.4853 l 1.6191,-6.0255 c 0.5871,-2.1813 1.3008,-3.8852 2.1439,-5.1123 0.843,-1.2271 2.0352,-2.2122 3.5705,-2.9554 1.5352,-0.7432 3.3463,-1.118 5.4255,-1.118 1.7501,0 3.1852,0.2421 4.3066,0.7189 1.1282,0.4776 1.9281,1.1004 2.3993,1.868 0.4779,0.7668 0.7262,1.5585 0.765,2.3689 0.0309,0.8155 -0.1774,2.0543 -0.6256,3.7222 z m -7.3136,-1.7697 c 0.3251,-1.2087 0.4555,-1.9644 0.4022,-2.2785 -0.0606,-0.3152 -0.3211,-0.4714 -0.7812,-0.4714 -0.4609,0 -0.8121,0.1562 -1.0483,0.4714 -0.2423,0.3141 -0.5238,1.0698 -0.8489,2.2785 l -2.8488,10.6001 c -0.2985,1.1121 -0.4148,1.8369 -0.3464,2.1697 0.0606,0.3379 0.318,0.5074 0.7656,0.5074 0.4669,0 0.8113,-0.1576 1.0372,-0.4592 0.2344,-0.3085 0.4859,-0.9726 0.7563,-1.9823 z m 20.0125,-6.4856 -0.7126,2.1642 c 0.7909,-0.8643 1.6554,-1.5117 2.5869,-1.9403 0.9374,-0.4289 1.9366,-0.6466 3.0024,-0.6466 1.3354,0 2.3497,0.2908 3.0424,0.8697 0.6945,0.5748 1.044,1.3059 1.052,2.1826 0.006,0.8816 -0.2702,2.3511 -0.8206,4.3994 l -4.4255,16.4687 h -7.783 l 4.3724,-16.2691 c 0.4348,-1.6203 0.6406,-2.6051 0.6176,-2.9614 -0.0175,-0.3501 -0.2908,-0.5315 -0.8175,-0.5315 -0.5524,0 -0.9561,0.2044 -1.2053,0.6157 -0.2531,0.4048 -0.6114,1.4933 -1.0873,3.2635 l -4.2681,15.8828 h -7.7896 l 6.315,-23.4977 z m 22.132,-5.1662 -1.004,3.7338 h -8.0198 l 1.0041,-3.7338 z m -1.3884,5.1662 -6.315,23.4977 h -8.0198 l 6.3151,-23.4977 z m 17.6221,8.8721 h -7.342 l 0.7274,-2.7079 c 0.2537,-0.942 0.3404,-1.5829 0.267,-1.9208 -0.0805,-0.3393 -0.3379,-0.5077 -0.7914,-0.5077 -0.4476,0 -0.7909,0.15 -1.0216,0.4476 -0.2376,0.2948 -0.4936,0.9544 -0.7696,1.9809 l -2.979,11.0848 c -0.2242,0.834 -0.2744,1.4618 -0.1576,1.8848 0.1182,0.4178 0.4034,0.629 0.8504,0.629 0.5267,0 0.9471,-0.218 1.2498,-0.6588 0.3011,-0.4348 0.616,-1.2634 0.9417,-2.4772 l 0.7523,-2.7992 h 6.9403 c -0.5176,1.8799 -0.9689,3.2885 -1.3583,4.2245 -0.3833,0.9365 -1.0707,1.904 -2.0662,2.8899 -0.9882,0.9847 -2.1353,1.7283 -3.4415,2.2288 -1.3057,0.5026 -2.8129,0.7495 -4.5363,0.7495 -2.1977,0 -3.8486,-0.3444 -4.9465,-1.0326 -1.0972,-0.6891 -1.7518,-1.6563 -1.9485,-2.9072 -0.1987,-1.245 0.0125,-3.0096 0.6279,-5.3005 l 1.7932,-6.6719 c 0.5377,-2.0001 1.1591,-3.5048 1.8663,-4.5204 0.7132,-1.0154 1.8833,-1.9162 3.5252,-2.7139 1.6421,-0.7974 3.486,-1.1965 5.5258,-1.1965 2.0327,0 3.657,0.3923 4.8852,1.1849 1.228,0.7911 1.9142,1.7881 2.071,2.9911 0.1488,1.2087 -0.0726,2.9126 -0.665,5.1188 z m 9.2146,0.2296 h -7.3089 l 0.4235,-1.5772 c 0.4873,-1.8125 1.0942,-3.2145 1.8131,-4.2001 0.7253,-0.9856 1.8753,-1.8615 3.4528,-2.6175 1.5783,-0.7548 3.4617,-1.1296 5.6591,-1.1296 2.6388,0 4.5031,0.4289 5.6095,1.281 1.112,0.858 1.6316,1.9097 1.5672,3.1552 -0.0652,1.2447 -0.6225,3.8075 -1.6665,7.6935 l -3.1688,11.7907 h -7.5722 l 0.5619,-2.0911 c -0.6993,0.8402 -1.4865,1.468 -2.3485,1.8861 -0.864,0.4227 -1.8136,0.6276 -2.8599,0.6276 -1.362,0 -2.5174,-0.3498 -3.467,-1.0505 -0.9437,-0.7013 -1.1016,-2.2425 -0.4652,-4.6119 l 0.5201,-1.9341 c 0.4726,-1.7583 1.0968,-2.9554 1.8726,-3.5898 0.777,-0.6409 2.4701,-1.3836 5.0922,-2.2303 2.8014,-0.9244 4.3355,-1.5409 4.6054,-1.8615 0.2642,-0.32 0.5301,-0.966 0.7934,-1.9451 0.3294,-1.2274 0.4402,-2.0308 0.3416,-2.4001 -0.0964,-0.3742 -0.3748,-0.5613 -0.8425,-0.5613 -0.5261,0 -0.8974,0.1562 -1.1069,0.4714 -0.2157,0.3141 -0.4929,1.1234 -0.8447,2.4353 z m 1.6018,3.2213 c -1.4766,0.8404 -2.3879,1.542 -2.7385,2.1087 -0.3501,0.5686 -0.6679,1.3847 -0.9519,2.4426 -0.3266,1.2143 -0.4524,1.9995 -0.3767,2.3567 0.0751,0.3569 0.3767,0.5318 0.8895,0.5318 0.487,0 0.8404,-0.1389 1.0664,-0.4176 0.2194,-0.2772 0.4949,-1.0085 0.8115,-2.1878 z"
     style="fill:#e6e6e6;fill-rule:evenodd;stroke:#999999;stroke-width:1.2;stroke-linecap:butt;stroke-linejoin:miter;stroke-dasharray:none"
     id="path6" />
   <!-- PREMIER - innner text -->
  <path
     d="m 55.7033,335.4273 h 34.894 c 9.4402,0 16.6011,0.4898 21.4217,1.4896 4.8486,0.9989 8.3307,2.4327 10.4181,4.299 2.1107,1.8859 3.3126,4.1675 3.5827,6.8276 0.2659,2.6776 -0.261,6.8076 -1.5859,12.4078 l -1.8423,7.7882 c -1.351,5.714 -3.2077,9.8815 -5.5652,12.4837 -2.3896,2.6212 -6.0934,4.6202 -11.1204,6.0344 -5.0218,1.3964 -11.3113,2.094 -18.8691,2.094 H 77.7373 L 69.2186,424.87 H 34.5487 Z m 31.0522,15.2938 -5.383,22.761 c 0.9742,0.0375 1.8124,0.0565 2.5149,0.0565 3.2028,0 5.519,-0.5279 7.001,-1.5651 1.4856,-1.0561 2.6209,-3.2436 3.4016,-6.5437 l 1.7399,-7.354 c 0.7222,-3.0563 0.4923,-5.0547 -0.7263,-5.9604 -1.2141,-0.9229 -4.053,-1.3943 -8.5481,-1.3943 z m 41.8399,21.7553 h 17.7205 c 11.8137,0 19.7527,0.2435 23.8144,0.7399 4.0612,0.496 7.1649,1.7654 9.3135,3.7953 2.1462,2.042 2.6822,5.2852 1.6036,9.7537 -0.9836,4.0705 -2.5775,6.8065 -4.7835,8.208 -2.1849,1.4012 -6.0616,2.2399 -11.6087,2.5166 4.7908,0.6721 7.924,1.5658 9.3572,2.6921 1.4159,1.1137 2.2436,2.1398 2.4233,3.0775 0.1999,0.9383 -0.2208,3.5195 -1.2407,7.7457 l -3.3321,13.8025 h -23.2416 l 4.1978,-17.3883 c 0.677,-2.8029 0.6687,-4.5346 0.0193,-5.2078 -0.6519,-0.6616 -2.7008,-1.0035 -6.1313,-1.0035 l -5.6974,23.5996 h -25.0486 z m 22.8878,8.9484 -2.8097,11.6399 c 2.8006,0 4.8203,-0.2086 6.0582,-0.6281 1.2376,-0.4196 2.1365,-1.7881 2.6935,-4.0935 l 0.6922,-2.8687 c 0.4028,-1.6662 0.1156,-2.7473 -0.8558,-3.2661 -0.9706,-0.519 -2.8959,-0.7835 -5.7784,-0.7835 z m 42.6954,-8.9484 h 41.7535 l -2.5277,10.4706 H 216.699 l -2.3944,9.9199 h 15.6294 l -2.4055,9.9623 h -15.6294 l -2.7782,11.5081 h 18.3696 l -2.5279,10.4704 h -43.418 z m 127.8587,0 -12.6343,52.3313 h -21.8812 l 8.5289,-35.3285 -17.2778,35.3285 H 263.245 l -0.8804,-34.5238 -8.3347,34.5238 h -21.8815 l 12.6343,-52.3313 h 32.4159 c 0.1947,3.1448 0.2942,6.8516 0.339,11.1226 l 0.2356,13.3172 11.6042,-24.4398 z m 35.0957,0 -12.6343,52.3313 H 319.451 l 12.634,-52.3313 z m 10.0474,0 h 41.7535 l -2.5282,10.4706 h -16.7054 l -2.3944,9.9199 h 15.6293 l -2.4054,9.9623 h -15.6294 l -2.7785,11.5081 h 18.3704 l -2.5285,10.4704 h -43.4171 z m 73.4913,8.9484 -2.8105,11.6399 c 2.8009,0 4.8206,-0.2086 6.0588,-0.6281 1.2379,-0.4196 2.1364,-1.7881 2.6932,-4.0935 l 0.6928,-2.8687 c 0.4019,-1.6662 0.115,-2.7473 -0.8558,-3.2661 -0.9715,-0.519 -2.8965,-0.7835 -5.7785,-0.7835 z m -22.8877,-8.9484 h 17.7205 c 11.8128,0 19.7518,0.2435 23.8133,0.7399 4.0617,0.496 7.1654,1.7654 9.3138,3.7953 2.1464,2.042 2.6821,5.2852 1.6035,9.7537 -0.9828,4.0705 -2.5772,6.8065 -4.7826,8.208 -2.1855,1.4012 -6.0619,2.2399 -11.609,2.5166 4.79,0.6721 7.9234,1.5658 9.3569,2.6921 1.4156,1.1137 2.2436,2.1398 2.4233,3.0775 0.1999,0.9383 -0.2202,3.5195 -1.2407,7.7457 l -3.3327,13.8025 h -23.241 l 4.1984,-17.3883 c 0.6764,-2.8029 0.6684,-4.5346 0.0187,-5.2078 -0.6522,-0.6616 -2.7008,-1.0035 -6.1307,-1.0035 l -5.698,23.5996 h -25.048 z"
     style="fill:#e6e6e6;fill-rule:evenodd;stroke:#999999;stroke-width:1.2;stroke-linecap:butt;stroke-linejoin:miter;stroke-dasharray:none"
     id="path8" />
</svg>
